# 3ds Max Wavefront OBJ Exporter v0.97b - (c)2007 guruware
# File Created: 09.06.2020 16:29:46

mtllib plane_2.mtl

#
# object Object002
#

v  985.8529 -45.0577 10.6014
v  984.9301 323.9177 10.6013
v  926.1976 323.0066 10.5944
v  926.1974 -54.6945 10.5944
v  1037.6893 -18.2302 10.6075
v  1036.7667 297.0902 10.6074
v  1078.5835 22.6641 10.6124
v  1077.6611 256.1959 10.6122
v  1104.4886 85.0488 10.6154
v  1104.4886 204.3592 10.6154
v  1114.1250 144.7040 10.6165
v  918.6756 335.0634 0.0331
v  918.4475 -67.4205 0.0331
v  981.9923 -57.1554 0.0406
v  1037.2090 -28.5787 0.0470
v  1080.7694 14.9820 0.0522
v  1108.3633 81.4342 0.0554
v  1118.6284 144.9791 0.0566
v  1108.3634 208.5240 0.0554
v  1079.7869 263.7405 0.0521
v  1036.2258 307.3011 0.0469
v  981.0095 335.8779 0.0404
v  926.2001 323.0066 -10.5264
v  984.9323 323.9177 -10.5195
v  985.8553 -45.0577 -10.5194
v  926.2000 -54.6945 -10.5265
v  1036.7692 297.0902 -10.5134
v  1037.6919 -18.2302 -10.5133
v  1077.6636 256.1959 -10.5086
v  1078.5859 22.6641 -10.5085
v  1104.4910 204.3592 -10.5054
v  1104.4908 85.0488 -10.5055
v  1114.1273 144.7039 -10.5043
# 33 vertices

vn 0.1562 -0.4016 0.9024
vn 0.1327 0.4193 0.8981
vn -0.3810 0.2620 0.8867
vn -0.3402 -0.2940 0.8932
vn 0.3054 -0.3779 0.8740
vn 0.3080 0.3811 0.8717
vn 0.4761 -0.2822 0.8329
vn 0.4471 0.3007 0.8424
vn 0.5533 -0.1477 0.8198
vn 0.5493 0.1664 0.8189
vn 0.5880 -0.0015 0.8089
vn -0.4048 0.4463 0.7981
vn -0.3589 -0.4569 0.8139
vn 0.1924 -0.6795 0.7080
vn 0.4372 -0.6522 0.6192
vn 0.6908 -0.5091 0.5134
vn 0.8735 -0.2621 0.4102
vn 0.9198 0.0021 0.3923
vn 0.8505 0.3015 0.4310
vn 0.6745 0.5298 0.5143
vn 0.4401 0.6567 0.6124
vn 0.1208 0.6786 0.7245
vn -0.3808 0.2620 -0.8868
vn 0.1329 0.4193 -0.8981
vn 0.1565 -0.4016 -0.9023
vn -0.3400 -0.2940 -0.8933
vn 0.3082 0.3811 -0.8716
vn 0.3056 -0.3779 -0.8740
vn 0.4473 0.3007 -0.8423
vn 0.4763 -0.2822 -0.8328
vn 0.5495 0.1664 -0.8187
vn 0.5535 -0.1477 -0.8196
vn 0.5881 -0.0015 -0.8088
vn -0.3587 -0.4569 -0.8140
vn -0.4046 0.4463 -0.7982
vn 0.1926 -0.6795 -0.7080
vn 0.4373 -0.6522 -0.6191
vn 0.6909 -0.5091 -0.5132
vn 0.8736 -0.2621 -0.4100
vn 0.9199 0.0021 -0.3921
vn 0.8506 0.3015 -0.4308
vn 0.6746 0.5298 -0.5141
vn 0.4402 0.6567 -0.6123
vn 0.1210 0.6786 -0.7245
# 44 vertex normals

vt 0.7116 0.2719 0.0000
vt 0.8443 0.2691 0.0000
vt 0.8435 0.2479 0.0000
vt 0.7078 0.2505 0.0000
vt 0.7217 0.2904 0.0000
vt 0.8350 0.2878 0.0000
vt 0.7368 0.3048 0.0000
vt 0.8204 0.3029 0.0000
vt 0.7590 0.3136 0.0000
vt 0.8023 0.3128 0.0000
vt 0.7807 0.3167 0.0000
vt 0.8478 0.2439 0.0000
vt 0.7032 0.2466 0.0000
vt 0.7065 0.2710 0.0000
vt 0.7165 0.2915 0.0000
vt 0.7327 0.3073 0.0000
vt 0.7566 0.3169 0.0000
vt 0.7807 0.3204 0.0000
vt 0.8049 0.3158 0.0000
vt 0.8246 0.3050 0.0000
vt 0.8403 0.2885 0.0000
vt 0.8494 0.2680 0.0000
vt 1.8435 0.2479 0.0000
vt 1.8443 0.2691 0.0000
vt 1.7116 0.2719 0.0000
vt 1.7078 0.2505 0.0000
vt 1.8350 0.2878 0.0000
vt 1.7217 0.2904 0.0000
vt 1.8204 0.3029 0.0000
vt 1.7368 0.3048 0.0000
vt 1.8023 0.3128 0.0000
vt 1.7590 0.3136 0.0000
vt 1.7807 0.3167 0.0000
vt 1.7032 0.2466 0.0000
vt 1.8478 0.2439 0.0000
vt 1.7065 0.2710 0.0000
vt 1.7165 0.2915 0.0000
vt 1.7327 0.3073 0.0000
vt 1.7566 0.3169 0.0000
vt 1.7807 0.3204 0.0000
vt 1.8049 0.3158 0.0000
vt 1.8246 0.3050 0.0000
vt 1.8403 0.2885 0.0000
vt 1.8494 0.2680 0.0000
# 44 texture coords

g Object002
usemtl Sopwith_Camel_blue
s 2
f 1/1/1 2/2/2 3/3/3 4/4/4 
f 5/5/5 6/6/6 2/2/2 1/1/1 
f 7/7/7 8/8/8 6/6/6 5/5/5 
f 9/9/9 10/10/10 8/8/8 7/7/7 
f 9/9/9 11/11/11 10/10/10 
f 4/4/4 3/3/3 12/12/12 13/13/13 
f 1/1/1 4/4/4 13/13/13 14/14/14 
f 5/5/5 1/1/1 14/14/14 15/15/15 
f 7/7/7 5/5/5 15/15/15 16/16/16 
f 9/9/9 7/7/7 16/16/16 17/17/17 
f 11/11/11 9/9/9 17/17/17 18/18/18 
f 10/10/10 11/11/11 18/18/18 19/19/19 
f 8/8/8 10/10/10 19/19/19 20/20/20 
f 6/6/6 8/8/8 20/20/20 21/21/21 
f 2/2/2 6/6/6 21/21/21 22/22/22 
f 3/3/3 2/2/2 22/22/22 12/12/12 
s 1
f 23/23/23 24/24/24 25/25/25 26/26/26 
f 24/24/24 27/27/27 28/28/28 25/25/25 
f 27/27/27 29/29/29 30/30/30 28/28/28 
f 29/29/29 31/31/31 32/32/32 30/30/30 
f 32/32/32 31/31/31 33/33/33 
f 26/26/26 13/34/34 12/35/35 23/23/23 
f 25/25/25 14/36/36 13/34/34 26/26/26 
f 28/28/28 15/37/37 14/36/36 25/25/25 
f 30/30/30 16/38/38 15/37/37 28/28/28 
f 32/32/32 17/39/39 16/38/38 30/30/30 
f 33/33/33 18/40/40 17/39/39 32/32/32 
f 31/31/31 19/41/41 18/40/40 33/33/33 
f 29/29/29 20/42/42 19/41/41 31/31/31 
f 27/27/27 21/43/43 20/42/42 29/29/29 
f 24/24/24 22/44/44 21/43/43 27/27/27 
f 23/23/23 12/35/35 22/44/44 24/24/24 
# 30 polygons - 2 triangles

