# 3ds Max Wavefront OBJ Exporter v0.97b - (c)2007 guruware
# File Created: 09.06.2020 16:29:20

mtllib plane_1.mtl

#
# object Object001
#

v  -463.3862 36.9153 -36.9154
v  -477.2307 40.4229 -40.4230
v  -477.2307 57.1666 -0.0003
v  -463.3862 52.2060 -0.0003
v  -463.3862 0.0003 -52.2061
v  -477.2307 0.0003 -57.1666
v  -463.3862 -36.9148 -36.9154
v  -477.2307 -40.4224 -40.4230
v  -463.3863 -52.2055 -0.0003
v  -477.2308 -57.1660 -0.0003
v  -463.3863 -36.9148 36.9147
v  -477.2308 -40.4224 40.4223
v  -463.3863 0.0003 52.2054
v  -477.2308 0.0003 57.1660
v  -463.3862 36.9153 36.9147
v  -477.2308 40.4229 40.4223
v  -489.3021 44.1965 -0.0003
v  -489.3021 -31.2512 31.2511
v  -489.3021 0.0003 44.1959
v  -489.3021 31.2517 31.2511
v  -489.3020 31.2517 -31.2518
v  -489.3020 0.0003 -44.1966
v  -489.3021 -31.2512 -31.2518
v  -489.3021 -44.1960 -0.0003
v  -486.6186 36.1766 -0.0003
v  -486.6186 25.4084 -25.9972
v  -516.2598 20.0363 -20.6251
v  -516.2598 28.5794 -0.0004
v  -486.6186 -0.5885 -36.7654
v  -516.2598 -0.5884 -29.1682
v  -486.6186 -26.5853 -25.9972
v  -516.2598 -21.2132 -20.6251
v  -486.6186 -37.3535 -0.0003
v  -516.2598 -29.7563 -0.0004
v  -486.6186 -26.5853 25.9965
v  -516.2598 -21.2132 20.6244
v  -486.6186 -0.5885 36.7647
v  -516.2598 -0.5884 29.1675
v  -486.6186 25.4084 25.9965
v  -516.2598 20.0363 20.6244
v  -528.0368 9.2922 -9.8810
v  -528.0368 13.3849 -0.0004
v  -528.0368 -0.5884 -13.9737
v  -528.0368 -10.4691 -9.8810
v  -528.0368 -14.5618 -0.0004
v  -528.0368 -10.4691 9.8803
v  -528.0368 -0.5884 13.9730
v  -528.0368 9.2922 9.8803
v  -472.2861 277.8400 291.7328
v  -476.9201 302.9533 287.4667
v  -484.5223 314.0734 275.4101
v  -474.5350 97.9740 113.4303
v  -486.0398 114.3825 95.6398
v  -486.8913 23.0619 11.7709
v  -474.8634 7.8382 28.2770
v  -482.8892 31.2756 2.8655
v  -483.0777 122.9208 86.3823
v  -475.1042 115.6255 94.2921
v  -474.4101 25.0265 9.6409
v  -477.7426 315.1405 274.2530
v  -484.6356 28.4433 5.9363
v  -487.1513 122.7218 86.5981
v  -484.4723 313.4269 253.1485
v  -482.6951 319.8178 269.1818
v  -491.1584 259.0774 225.7812
v  -469.6753 227.3600 260.1701
v  -470.8602 220.3176 185.8216
v  -486.1324 275.4190 208.0632
v  -490.8235 271.8438 211.9395
v  -469.9131 187.0246 221.9187
v  -486.0162 234.0494 170.9332
v  -490.8076 246.7878 189.7994
v  -471.0872 -279.0169 -295.7375
v  -475.7212 -304.1302 -291.4714
v  -483.3235 -315.2502 -279.4147
v  -473.3362 -99.1510 -117.4350
v  -484.8410 -115.5595 -99.6444
v  -485.6926 -24.2389 -15.7756
v  -473.6646 -9.0151 -32.2816
v  -481.6905 -32.4525 -6.8702
v  -481.8789 -124.0978 -90.3870
v  -473.9055 -116.8025 -98.2968
v  -473.2114 -26.2035 -13.6455
v  -476.5437 -316.3174 -278.2577
v  -483.4369 -29.6202 -9.9410
v  -485.9526 -123.8987 -90.6028
v  -483.2735 -314.6037 -257.1532
v  -481.4962 -320.9947 -273.1864
v  -489.9596 -260.2543 -229.7859
v  -468.4764 -228.5369 -264.1748
v  -469.6614 -221.4945 -189.8263
v  -484.9337 -276.5960 -212.0679
v  -489.6247 -273.0207 -215.9442
v  -468.7143 -188.2015 -225.9234
v  -484.8174 -235.2264 -174.9379
v  -489.6088 -247.9648 -193.8041
# 96 vertices

vn 0.3373 0.6657 -0.6657
vn -0.2104 0.6913 -0.6913
vn -0.2104 0.9776 -0.0000
vn 0.3373 0.9414 0.0000
vn 0.3373 -0.0000 -0.9414
vn -0.2104 0.0000 -0.9776
vn 0.3373 -0.6657 -0.6657
vn -0.2104 -0.6913 -0.6913
vn 0.3373 -0.9414 0.0000
vn -0.2104 -0.9776 -0.0000
vn 0.3373 -0.6657 0.6657
vn -0.2104 -0.6913 0.6913
vn 0.3373 -0.0000 0.9414
vn -0.2104 0.0000 0.9776
vn 0.3373 0.6657 0.6657
vn -0.2104 0.6913 0.6913
vn -0.8982 0.4396 -0.0000
vn -0.8982 -0.3108 0.3108
vn -0.8982 0.0000 0.4396
vn -0.8982 0.3108 0.3108
vn -0.8982 0.3108 -0.3108
vn -0.8982 0.0000 -0.4396
vn -0.8982 -0.3108 -0.3108
vn -0.8982 -0.4396 -0.0000
vn -0.2483 0.9687 -0.0000
vn -0.2483 0.6850 -0.6850
vn -0.5154 0.6060 -0.6060
vn -0.5154 0.8570 -0.0000
vn -0.2483 0.0000 -0.9687
vn -0.5154 0.0000 -0.8570
vn -0.2483 -0.6850 -0.6850
vn -0.5154 -0.6060 -0.6060
vn -0.2483 -0.9687 -0.0000
vn -0.5154 -0.8570 -0.0000
vn -0.2483 -0.6850 0.6850
vn -0.5154 -0.6060 0.6060
vn -0.2483 0.0000 0.9687
vn -0.5154 0.0000 0.8570
vn -0.2483 0.6850 0.6850
vn -0.5154 0.6060 0.6060
vn -0.9199 0.2772 -0.2772
vn -0.9199 0.3920 -0.0000
vn -0.9199 0.0000 -0.3920
vn -0.9199 -0.2772 -0.2772
vn -0.9200 -0.3920 -0.0000
vn -0.9200 -0.2772 0.2772
vn -0.9200 0.0000 0.3920
vn -0.9200 0.2772 0.2772
vn -0.9209 -0.1896 0.3407
vn -0.8749 -0.0803 0.4776
vn -0.9840 0.0290 0.1759
vn -0.9018 -0.3023 0.3088
vn -0.9650 -0.1836 0.1871
vn -0.9932 -0.0900 0.0743
vn -0.8815 -0.3226 0.3448
vn 0.7408 0.4611 -0.4885
vn 0.8033 0.3878 -0.4521
vn 0.9460 0.2066 -0.2498
vn 0.9336 0.2456 -0.2609
vn 0.9913 0.1158 -0.0623
vn 0.9426 0.2914 -0.1632
vn 0.9718 0.2004 0.1244
vn 0.9997 0.0027 -0.0236
vn 0.9998 -0.0142 0.0112
vn -0.9410 0.2163 -0.2601
vn -0.7651 0.3968 -0.5071
vn -0.0821 0.6250 -0.7763
vn -0.9226 0.2588 -0.2860
vn 0.8712 0.3781 -0.3133
vn 0.7986 0.5234 -0.2972
vn -0.9796 -0.1106 0.1676
vn -0.9086 -0.2705 0.3182
vn 0.9457 0.2122 -0.2461
vn 0.8490 0.3825 -0.3646
vn 0.9966 0.0760 -0.0313
vn -0.9968 0.0797 -0.0046
vn -0.7692 0.4970 -0.4017
vn -0.9203 0.3190 -0.2264
vn -0.9137 -0.2867 0.2881
vn 0.8005 0.3892 -0.4557
vn 0.9997 0.0009 -0.0254
vn -0.8176 0.3568 -0.4520
vn -0.9425 0.2119 -0.2583
vn -0.9562 0.2926 -0.0106
vn 0.0000 0.7351 0.6780
vn -0.9209 0.1896 -0.3407
vn -0.8749 0.0803 -0.4776
vn -0.9840 -0.0290 -0.1759
vn -0.9018 0.3023 -0.3088
vn -0.9650 0.1836 -0.1871
vn -0.9932 0.0900 -0.0743
vn -0.8815 0.3226 -0.3448
vn 0.7408 -0.4611 0.4885
vn 0.8033 -0.3878 0.4521
vn 0.9460 -0.2066 0.2498
vn 0.9336 -0.2456 0.2609
vn 0.9913 -0.1158 0.0623
vn 0.9426 -0.2914 0.1632
vn 0.9718 -0.2004 -0.1244
vn 0.9997 -0.0027 0.0236
vn 0.9998 0.0142 -0.0112
vn -0.9410 -0.2163 0.2601
vn -0.7651 -0.3968 0.5071
vn -0.0821 -0.6250 0.7763
vn -0.9226 -0.2588 0.2860
vn 0.8712 -0.3781 0.3133
vn 0.7986 -0.5234 0.2972
vn -0.9796 0.1106 -0.1676
vn -0.9086 0.2705 -0.3182
vn 0.9457 -0.2122 0.2461
vn 0.8490 -0.3825 0.3646
vn 0.9966 -0.0760 0.0313
vn -0.9968 -0.0797 0.0046
vn -0.7692 -0.4970 0.4017
vn -0.9203 -0.3190 0.2264
vn -0.9137 0.2867 -0.2881
vn 0.8005 -0.3892 0.4557
vn 0.9997 -0.0009 0.0254
vn -0.8176 -0.3568 0.4520
vn -0.9425 -0.2119 0.2583
vn -0.9562 -0.2926 0.0106
vn -0.0000 -0.7351 -0.6780
# 122 vertex normals

vt 0.9800 0.6081 0.0000
vt 0.9752 0.6081 0.0000
vt 0.9752 0.5923 0.0000
vt 0.9800 0.5923 0.0000
vt 0.9800 0.6239 0.0000
vt 0.9752 0.6239 0.0000
vt 0.9800 0.6397 0.0000
vt 0.9752 0.6397 0.0000
vt 0.9800 0.6554 0.0000
vt 0.9752 0.6554 0.0000
vt 0.9800 0.6712 0.0000
vt 0.9752 0.6712 0.0000
vt 0.9800 0.6870 0.0000
vt 0.9752 0.6870 0.0000
vt 0.9800 0.5765 0.0000
vt 0.9752 0.5765 0.0000
vt 0.9752 0.5608 0.0000
vt 0.9800 0.5608 0.0000
vt 0.9611 0.5855 0.0000
vt 0.9611 0.5518 0.0000
vt 0.9709 0.5612 0.0000
vt 0.9709 0.5761 0.0000
vt 0.9709 0.6081 0.0000
vt 0.9709 0.5923 0.0000
vt 0.9709 0.6239 0.0000
vt 0.9709 0.6397 0.0000
vt 0.9709 0.6554 0.0000
vt 0.9709 0.6712 0.0000
vt 0.9709 0.6870 0.0000
vt 0.9372 0.5756 0.0000
vt 0.9372 0.5617 0.0000
vt 0.9471 0.5518 0.0000
vt 0.9471 0.5855 0.0000
vt 0.9198 0.7008 0.0000
vt 0.9164 0.6916 0.0000
vt 0.9275 0.6895 0.0000
vt 0.9303 0.6968 0.0000
vt 0.9164 0.6818 0.0000
vt 0.9275 0.6819 0.0000
vt 0.9164 0.6719 0.0000
vt 0.9275 0.6739 0.0000
vt 0.9534 0.7341 0.0000
vt 0.9448 0.7294 0.0000
vt 0.9501 0.7196 0.0000
vt 0.9569 0.7233 0.0000
vt 0.9361 0.7247 0.0000
vt 0.9432 0.7159 0.0000
vt 0.9297 0.7173 0.0000
vt 0.9381 0.7100 0.0000
vt 0.9232 0.7100 0.0000
vt 0.9330 0.7041 0.0000
vt 0.9417 0.6879 0.0000
vt 0.9334 0.6879 0.0000
vt 0.9356 0.6827 0.0000
vt 0.9395 0.6827 0.0000
vt 0.9327 0.6798 0.0000
vt 0.9327 0.6759 0.0000
vt 0.9334 0.6679 0.0000
vt 0.9356 0.6731 0.0000
vt 0.9417 0.6679 0.0000
vt 0.9395 0.6731 0.0000
vt 0.9475 0.6737 0.0000
vt 0.9423 0.6759 0.0000
vt 0.9475 0.6820 0.0000
vt 0.9423 0.6798 0.0000
vt 0.7582 0.3709 0.0000
vt 0.7526 0.3634 0.0000
vt 0.7526 0.3570 0.0000
vt 0.8497 0.3675 0.0000
vt 0.8497 0.3580 0.0000
vt 0.8945 0.3580 0.0000
vt 0.8945 0.3669 0.0000
vt 0.8916 0.4032 0.0000
vt 0.8466 0.4035 0.0000
vt 0.8466 0.3991 0.0000
vt 0.8916 0.3993 0.0000
vt 0.7549 0.3864 0.0000
vt 0.7492 0.4003 0.0000
vt 0.7492 0.3939 0.0000
vt 0.8466 0.3898 0.0000
vt 0.8916 0.3904 0.0000
vt 0.8945 0.3554 0.0000
vt 0.8497 0.3536 0.0000
vt 0.8498 0.3521 0.0000
vt 0.8946 0.3545 0.0000
vt 0.7549 0.4059 0.0000
vt 0.7492 0.4032 0.0000
vt 0.7794 0.3567 0.0000
vt 0.7794 0.3749 0.0000
vt 0.7962 0.4000 0.0000
vt 0.7761 0.4087 0.0000
vt 0.7761 0.3823 0.0000
vt 0.7582 0.3514 0.0000
vt 0.7794 0.3483 0.0000
vt 0.7794 0.3501 0.0000
vt 0.7995 0.3747 0.0000
vt 0.7962 0.4084 0.0000
vt 0.7962 0.3826 0.0000
vt 0.7995 0.3486 0.0000
vt 0.7915 0.3504 0.0000
vt 0.7516 0.3543 0.0000
vt 0.7501 0.3575 0.0000
vt 1.7582 0.3709 0.0000
vt 1.7526 0.3634 0.0000
vt 1.7526 0.3570 0.0000
vt 1.8497 0.3675 0.0000
vt 1.8497 0.3580 0.0000
vt 1.8945 0.3580 0.0000
vt 1.8945 0.3669 0.0000
vt 1.8916 0.4032 0.0000
vt 1.8466 0.4035 0.0000
vt 1.8466 0.3991 0.0000
vt 1.8916 0.3993 0.0000
vt 1.7549 0.3864 0.0000
vt 1.7492 0.4003 0.0000
vt 1.7492 0.3939 0.0000
vt 1.8466 0.3898 0.0000
vt 1.8916 0.3904 0.0000
vt 1.8945 0.3554 0.0000
vt 1.8497 0.3536 0.0000
vt 1.8498 0.3521 0.0000
vt 1.8946 0.3545 0.0000
vt 1.7549 0.4059 0.0000
vt 1.7492 0.4032 0.0000
vt 1.7794 0.3567 0.0000
vt 1.7794 0.3749 0.0000
vt 1.7962 0.4000 0.0000
vt 1.7761 0.4087 0.0000
vt 1.7761 0.3823 0.0000
vt 1.7582 0.3514 0.0000
vt 1.7794 0.3483 0.0000
vt 1.7794 0.3501 0.0000
vt 1.7995 0.3747 0.0000
vt 1.7962 0.4084 0.0000
vt 1.7962 0.3826 0.0000
vt 1.7995 0.3486 0.0000
vt 1.7915 0.3504 0.0000
vt 1.7516 0.3543 0.0000
vt 1.7501 0.3575 0.0000
# 139 texture coords

g Object001
usemtl Sopwith_Camel_blue
s 1
f 1/1/1 2/2/2 3/3/3 4/4/4 
f 5/5/5 6/6/6 2/2/2 1/1/1 
f 7/7/7 8/8/8 6/6/6 5/5/5 
f 9/9/9 10/10/10 8/8/8 7/7/7 
f 11/11/11 12/12/12 10/10/10 9/9/9 
f 13/13/13 14/14/14 12/12/12 11/11/11 
f 15/15/15 16/16/16 14/17/14 13/18/13 
f 4/4/4 3/3/3 16/16/16 15/15/15 
f 17/19/17 18/20/18 19/21/19 20/22/20 
f 21/23/21 17/24/17 3/3/3 2/2/2 
f 22/25/22 21/23/21 2/2/2 6/6/6 
f 23/26/23 22/25/22 6/6/6 8/8/8 
f 24/27/24 23/26/23 8/8/8 10/10/10 
f 18/28/18 24/27/24 10/10/10 12/12/12 
f 19/29/19 18/28/18 12/12/12 14/14/14 
f 20/22/20 19/21/19 14/17/14 16/16/16 
f 17/24/17 20/22/20 16/16/16 3/3/3 
f 22/30/22 23/31/23 24/32/24 21/33/21 
f 21/33/21 24/32/24 18/20/18 17/19/17 
f 25/34/25 26/35/26 27/36/27 28/37/28 
f 26/35/26 29/38/29 30/39/30 27/36/27 
f 29/38/29 31/40/31 32/41/32 30/39/30 
f 31/42/31 33/43/33 34/44/34 32/45/32 
f 33/43/33 35/46/35 36/47/36 34/44/34 
f 35/46/35 37/48/37 38/49/38 36/47/36 
f 37/48/37 39/50/39 40/51/40 38/49/38 
f 39/50/39 25/34/25 28/37/28 40/51/40 
f 28/52/28 27/53/27 41/54/41 42/55/42 
f 27/53/27 30/39/30 43/56/43 41/54/41 
f 30/39/30 32/41/32 44/57/44 43/56/43 
f 32/41/32 34/58/34 45/59/45 44/57/44 
f 34/58/34 36/60/36 46/61/46 45/59/45 
f 36/60/36 38/62/38 47/63/47 46/61/46 
f 38/62/38 40/64/40 48/65/48 47/63/47 
f 40/64/40 28/52/28 42/55/42 48/65/48 
f 45/59/45 46/61/46 47/63/47 48/65/48 
f 41/54/41 43/56/43 44/57/44 42/55/42 
f 42/55/42 44/57/44 45/59/45 48/65/48 
s 2
f 49/66/49 50/67/50 51/68/51 
f 52/69/52 53/70/53 54/71/54 55/72/55 
s 1
f 56/73/56 57/74/57 58/75/58 59/76/59 
f 49/77/60 60/78/61 50/79/62 
f 59/76/59 58/75/58 52/80/63 55/81/64 
s 2
f 61/82/65 62/83/66 57/84/67 56/85/68 
s 1
f 60/78/61 63/86/69 64/87/70 
s 2
f 49/66/49 51/68/51 65/88/71 66/89/72 
s 1
f 63/86/69 60/78/61 67/90/73 68/91/74 
f 60/78/61 49/77/60 66/92/75 67/90/73 
s 2
f 51/68/51 63/93/76 68/94/77 69/95/78 
f 70/96/79 66/89/72 65/88/71 
s 1
f 71/97/80 68/91/74 67/90/73 
f 67/90/73 66/92/75 70/98/81 
s 2
f 68/94/77 71/99/82 72/100/83 69/95/78 
f 70/96/79 65/88/71 53/70/53 52/69/52 
s 1
f 71/97/80 67/90/73 58/75/58 57/74/57 
f 67/90/73 70/98/81 52/80/63 58/75/58 
s 2
f 53/70/53 65/88/71 72/100/83 62/83/66 
f 64/101/84 63/93/76 51/68/51 
f 54/71/54 53/70/53 62/83/66 61/82/65 
f 71/99/82 57/84/67 62/83/66 72/100/83 
f 72/100/83 65/88/71 69/95/78 
f 69/95/78 65/88/71 51/68/51 
s off
f 60/102/85 64/101/85 51/68/85 50/67/85 
s 2
f 73/103/86 74/104/87 75/105/88 
f 76/106/89 77/107/90 78/108/91 79/109/92 
s 1
f 80/110/93 81/111/94 82/112/95 83/113/96 
f 73/114/97 84/115/98 74/116/99 
f 83/113/96 82/112/95 76/117/100 79/118/101 
s 2
f 85/119/102 86/120/103 81/121/104 80/122/105 
s 1
f 84/115/98 87/123/106 88/124/107 
s 2
f 73/103/86 75/105/88 89/125/108 90/126/109 
s 1
f 87/123/106 84/115/98 91/127/110 92/128/111 
f 84/115/98 73/114/97 90/129/112 91/127/110 
s 2
f 75/105/88 87/130/113 92/131/114 93/132/115 
f 94/133/116 90/126/109 89/125/108 
s 1
f 95/134/117 92/128/111 91/127/110 
f 91/127/110 90/129/112 94/135/118 
s 2
f 92/131/114 95/136/119 96/137/120 93/132/115 
f 94/133/116 89/125/108 77/107/90 76/106/89 
s 1
f 95/134/117 91/127/110 82/112/95 81/111/94 
f 91/127/110 94/135/118 76/117/100 82/112/95 
s 2
f 77/107/90 89/125/108 96/137/120 86/120/103 
f 88/138/121 87/130/113 75/105/88 
f 78/108/91 77/107/90 86/120/103 85/119/102 
f 95/136/119 81/121/104 86/120/103 96/137/120 
f 96/137/120 89/125/108 93/132/115 
f 93/132/115 89/125/108 75/105/88 
s off
f 84/139/122 88/138/122 75/105/122 74/104/122 
# 70 polygons - 18 triangles

